<?xml version="1.0" encoding="UTF-8"?>
<svg id="Layer_1" xmlns="http://www.w3.org/2000/svg" version="1.1" viewBox="0 0 61.51 61.51">
  <!-- Generator: Adobe Illustrator 30.5.1, SVG Export Plug-In . SVG Version: 2.1.4 Build 3)  -->
  <defs>
    <style>
      .st0 {
        stroke-linecap: round;
      }

      .st0, .st1 {
        fill: none;
        stroke: #000;
        stroke-miterlimit: 10;
        stroke-width: .5px;
      }
    </style>
  </defs>
  <path d="M30.76,0C13.77,0,0,13.77,0,30.76s13.77,30.76,30.76,30.76,30.76-13.77,30.76-30.76S47.74,0,30.76,0ZM30.76,56.33c-14.1,0-25.58-11.47-25.58-25.58S16.65,5.18,30.76,5.18s25.58,11.47,25.58,25.58-11.47,25.58-25.58,25.58Z"/>
  <g>
    <line class="st1" x1="48.12" y1="45.8" x2="52.03" y2="49.19"/>
    <line class="st1" x1="53.59" y1="33.4" x2="58.74" y2="33.99"/>
    <line class="st1" x1="50.96" y1="19.79" x2="55.5" y2="17.31"/>
    <line class="st1" x1="41.4" y1="10.39" x2="43.81" y2="5.8"/>
    <line class="st1" x1="27.73" y1="7.97" x2="27.05" y2="2.83"/>
    <line class="st1" x1="15.42" y1="13.65" x2="11.96" y2="9.8"/>
    <line class="st1" x1="8.45" y1="25.19" x2="3.43" y2="23.93"/>
    <line class="st1" x1="9.34" y1="39.11" x2="4.52" y2="40.99"/>
    <line class="st1" x1="17.66" y1="49.64" x2="14.7" y2="53.89"/>
    <line class="st1" x1="30.76" y1="53.74" x2="30.76" y2="58.92"/>
  </g>
  <g>
    <line class="st0" x1="28.93" y1="15.81" x2="28.93" y2="34.88"/>
    <line class="st0" x1="41.97" y1="34.88" x2="28.93" y2="34.88"/>
  </g>
</svg>