<?xml version="1.0" encoding="UTF-8"?>
<svg id="Layer_1" xmlns="http://www.w3.org/2000/svg" version="1.1" viewBox="0 0 43.83 62.52">
  <!-- Generator: Adobe Illustrator 30.5.1, SVG Export Plug-In . SVG Version: 2.1.4 Build 3)  -->
  <path d="M33.1,25.27l2.76-11.71c-.66-1.58-1.45-3.75-1.91-6.32-.4-2.63-.4-4.93-.26-6.65C32.44.39,31.13.2,29.88,0c-.06.53-.79,6.91-5.46,8.75-.66.26-1.19.53-2.57.53s-1.97-.26-2.57-.53C14.61,6.91,13.88.53,13.82,0c-1.25.2-2.57.4-3.82.59.13,1.71.13,4.02-.33,6.65s-1.19,4.74-1.91,6.32l2.76,11.71C7.04,36.53,3.49,47.84,0,59.1c2.5.72,5.26,1.45,8.29,2.04,5,.92,9.21,1.38,13.62,1.38s8.56-.46,13.62-1.38c3.03-.59,5.79-1.25,8.29-2.04-3.62-11.25-7.17-22.57-10.73-33.83h0Z"/>
</svg>