<?xml version="1.0" encoding="UTF-8"?>
<svg id="Layer_1" xmlns="http://www.w3.org/2000/svg" version="1.1" viewBox="0 0 50.29 41.92">
  <!-- Generator: Adobe Illustrator 30.5.1, SVG Export Plug-In . SVG Version: 2.1.4 Build 3)  -->
  <path d="M8.8,8.52c3.7.75,6.94,3.04,9.01,4.82.86.73,1.99-.57,1.13-1.31-2.22-1.92-5.72-4.37-9.79-5.2-1.12-.21-1.46,1.45-.35,1.7h0Z"/>
  <path d="M9.15,12.33c-1.12-.21-1.46,1.45-.35,1.7,3.71.76,6.94,3.04,9.01,4.82.36.31.91.27,1.22-.09.31-.36.27-.91-.09-1.22-2.22-1.92-5.72-4.37-9.79-5.2h0Z"/>
  <path d="M9.15,17.83c-1.12-.21-1.46,1.45-.35,1.7,3.71.76,6.94,3.04,9.01,4.82.36.31.91.27,1.22-.09.31-.36.27-.91-.09-1.22-2.22-1.92-5.72-4.37-9.79-5.2h0Z"/>
  <path d="M9.15,23.33c-1.12-.21-1.46,1.45-.35,1.7,3.7.75,6.94,3.04,9.01,4.82.36.31.91.27,1.22-.09.31-.36.27-.91-.09-1.22-2.22-1.92-5.72-4.37-9.79-5.2h0Z"/>
  <path d="M43.33,21.04c-.48,0-.87.39-.87.87v17.47c-8.1-5.27-16.37-2.58-19.5-1.21V10.75c2.94-.7,5.74-1.11,8.33-1.17,1.14-.04,1.09-1.76-.04-1.73-2.74.07-5.71.49-8.81,1.24C20.78,7.08,13.65-.92,5.16.09c-.44.05-.77.42-.77.86v8.12C1.63,10.01.33,11.2.27,11.26.1,11.42,0,11.65,0,11.88v29.17c0,.47.4.88.87.87,10.17-7.4,19.7-2.27,20.79-1.62.27.15.61.15.87,0,.43-.25,10.58-6.03,20.27,1.44.54.44,1.42.01,1.4-.69v-19.14c0-.48-.39-.87-.87-.87h0ZM6.13,1.75c7.46-.34,13.96,7.22,15.1,8.62v26.57c-5.36-6.34-12.57-7.17-15.1-7.25V1.75ZM1.74,39.38V12.3c.41-.3,1.28-.86,2.66-1.4v19.64c-.01.48.44.9.91.87.1,0,8.15-.3,14.04,6.03-3.9-1.31-10.81-2.5-17.61,1.93h0Z"/>
  <path d="M41.46,2.68c-4.87,0-8.83,3.96-8.83,8.83.49,11.71,17.17,11.71,17.66,0,0-4.87-3.96-8.83-8.83-8.83h0ZM41.46,18.6c-3.91,0-7.1-3.18-7.1-7.1.39-9.41,13.8-9.41,14.19,0,0,3.91-3.18,7.1-7.1,7.1h0Z"/>
  <path d="M43.51,14.3h-.82v-4.46c0-.48-.39-.87-.87-.87h-1.47c-.48,0-.87.39-.87.87s.39.87.87.87h.6v3.59h-.82c-.48,0-.87.39-.87.87s.39.87.87.87h3.37c1.14-.02,1.14-1.71,0-1.73h0Z"/>
  <path d="M41.46,8.06c1.4-.02,1.4-2.11,0-2.14-1.4.02-1.4,2.11,0,2.14Z"/>
</svg>