<?xml version="1.0" encoding="UTF-8"?>
<svg id="Layer_1" xmlns="http://www.w3.org/2000/svg" version="1.1" viewBox="0 0 517.37 152.44">
  <!-- Generator: Adobe Illustrator 30.5.1, SVG Export Plug-In . SVG Version: 2.1.4 Build 3)  -->
  <defs>
    <style>
      .st0 {
        fill: #fff;
      }
    </style>
  </defs>
  <g>
    <path class="st0" d="M31.02,28.06c3.8,0,7.22.2,10.27.61,3.05.41,5.67.96,7.87,1.67s4.11,1.61,5.73,2.71c1.62,1.1,2.94,2.27,3.95,3.51,1.01,1.24,1.82,2.67,2.43,4.28.61,1.61,1.03,3.21,1.26,4.79.22,1.58.33,3.34.33,5.28v3.53c0,1.88-.11,3.6-.33,5.14-.22,1.54-.64,3.09-1.26,4.63-.62,1.54-1.43,2.91-2.43,4.08-1.01,1.18-2.32,2.28-3.95,3.32-1.62,1.03-3.53,1.88-5.73,2.55-2.2.67-4.82,1.19-7.87,1.57-3.05.38-6.47.57-10.27.57H3.53V28.06h27.49ZM56.11,54.45v-3.53c0-2.17-.19-4.04-.57-5.59-.38-1.56-1.1-3.06-2.16-4.5-1.06-1.44-2.51-2.6-4.34-3.48-1.83-.88-4.25-1.57-7.26-2.08-3.01-.51-6.6-.77-10.76-.77H10.13v35.38h20.89c3.09,0,5.84-.12,8.27-.35,2.42-.24,4.5-.57,6.24-1,1.74-.43,3.25-1,4.52-1.69,1.27-.69,2.29-1.44,3.06-2.24.77-.8,1.39-1.76,1.85-2.89.46-1.13.77-2.25.92-3.36s.24-2.42.24-3.91Z"/>
    <path class="st0" d="M79.28,76.32V28.06h6.6v48.26h-6.6Z"/>
    <path class="st0" d="M149.21,76.32l-4.99-9.07h-35.46l-4.99,9.07h-7.58l26.54-48.18-.08-.08h7.66v.08l26.43,48.18h-7.54ZM112.3,60.81h28.39l-14.17-25.84-14.21,25.84Z"/>
    <path class="st0" d="M214.08,28.06h6.6v48.26h-8.83l-38.13-41.19v41.19h-6.6V28.06h8.76l38.21,41.19V28.06Z"/>
    <path class="st0" d="M284.01,76.32l-4.99-9.07h-35.46l-4.99,9.07h-7.58l26.54-48.18-.08-.08h7.66v.08l26.43,48.18h-7.54ZM247.1,60.81h28.39l-14.17-25.84-14.21,25.84Z"/>
  </g>
  <g>
    <path class="st0" d="M31.84,152.44c-4.58,0-8.68-.4-12.29-1.2-3.61-.8-6.63-1.9-9.05-3.3-2.42-1.4-4.43-3.11-6.03-5.12-1.6-2.02-2.74-4.19-3.44-6.52-.69-2.33-1.04-4.88-1.04-7.66v-2.4c0-2.77.35-5.33,1.04-7.66.69-2.33,1.84-4.5,3.44-6.52,1.6-2.02,3.61-3.72,6.03-5.12,2.42-1.4,5.44-2.5,9.05-3.3,3.61-.8,7.71-1.2,12.29-1.2,9.53,0,17.07,1.71,22.64,5.14,5.56,3.43,8.53,7.83,8.89,13.19h-7.19c-.45-3.59-2.86-6.47-7.24-8.66-4.39-2.18-10.09-3.28-17.1-3.28-8.59,0-14.92,1.51-18.98,4.52-4.07,3.01-6.11,7.3-6.11,12.88v2.4c0,5.58,2.04,9.87,6.11,12.88,4.07,3.01,10.4,4.52,18.98,4.52,14.42,0,22.51-4.16,24.27-12.49h7.19c-.39,2.78-1.29,5.29-2.69,7.54-1.4,2.25-3.34,4.23-5.83,5.95-2.49,1.71-5.67,3.04-9.56,3.99s-8.34,1.41-13.37,1.41Z"/>
    <path class="st0" d="M130.25,103.4h6.6v48.26h-6.6v-21.16h-43.74v21.16h-6.6v-48.26h6.6v21.48h43.74v-21.48Z"/>
    <path class="st0" d="M210.47,117.57c0,3.19-.62,5.71-1.87,7.56-1.24,1.85-3.08,3.16-5.52,3.95,4.56,2.15,6.83,5.89,6.83,11.23v6.52c0,1.6.13,3.21.39,4.83h-7.5c-.21-1.28-.31-2.79-.31-4.52v-6.44c0-1.28-.12-2.38-.37-3.3-.25-.92-.71-1.8-1.39-2.65-.68-.85-1.71-1.49-3.1-1.92-1.39-.43-3.12-.65-5.18-.65h-28.7v19.48h-6.99v-48.26h37.7c5.31,0,9.31,1.09,12,3.28,2.68,2.19,4.02,5.39,4.02,9.6v1.3ZM203.71,117.57v-1.3c0-4.29-3.09-6.44-9.27-6.44h-30.71v15.51h30.71c6.18,0,9.27-2.59,9.27-7.77Z"/>
    <path class="st0" d="M227.11,151.66v-48.26h6.6v48.26h-6.6Z"/>
    <path class="st0" d="M300.03,118.51c0-3.17-1.82-5.52-5.46-7.07s-8.77-2.32-15.39-2.32c-14.84,0-22.26,1.95-22.26,5.85v1.22c0,.71.1,1.31.31,1.81.21.5.72,1.05,1.53,1.65.81.6,1.95,1.13,3.42,1.57s3.52.9,6.17,1.35c2.64.46,5.82.87,9.54,1.24,2.28.21,4.27.42,5.99.63s3.46.45,5.24.73c1.78.27,3.3.56,4.57.86,1.27.3,2.53.65,3.79,1.06,1.26.41,2.31.85,3.16,1.33s1.64,1.03,2.38,1.65c.73.62,1.32,1.3,1.75,2.06.43.76.77,1.6,1,2.53.24.93.35,1.96.35,3.08v1.1c0,4.69-2.27,8.12-6.81,10.31s-11.81,3.28-21.81,3.28c-9.24,0-16.12-1.43-20.63-4.28-4.52-2.85-6.77-6.94-6.77-12.25h6.6c0,6.75,6.94,10.13,20.81,10.13,14.58,0,21.87-2.39,21.87-7.19v-1.1c0-.55-.08-1.02-.24-1.41s-.48-.84-.96-1.33-1.23-.95-2.24-1.35c-1.01-.41-2.29-.81-3.85-1.22-1.56-.41-3.57-.79-6.05-1.16-2.47-.37-5.35-.71-8.62-1.02-2.96-.31-5.5-.61-7.62-.9-2.12-.29-4.2-.63-6.22-1.02-2.03-.39-3.71-.84-5.03-1.33-1.32-.5-2.56-1.08-3.71-1.75-1.15-.67-2.04-1.43-2.67-2.3-.63-.86-1.12-1.85-1.47-2.96-.35-1.11-.53-2.38-.53-3.79v-1.22c0-4.08,2.32-7.15,6.97-9.21,4.65-2.05,12-3.08,22.05-3.08,18.3,0,27.45,5.28,27.45,15.82h-6.6Z"/>
    <path class="st0" d="M366.35,103.4v6.28h-23.48v41.98h-6.6v-41.98h-23.48v-6.28h53.56Z"/>
    <path class="st0" d="M375.97,151.66v-48.26h6.6v48.26h-6.6Z"/>
    <path class="st0" d="M445.9,151.66l-4.99-9.07h-35.46l-4.99,9.07h-7.58l26.54-48.18-.08-.08h7.66v.08l26.43,48.18h-7.54ZM408.99,136.15h28.39l-14.17-25.84-14.21,25.84Z"/>
    <path class="st0" d="M510.77,103.4h6.6v48.26h-8.83l-38.13-41.19v41.19h-6.6v-48.26h8.76l38.21,41.19v-41.19Z"/>
  </g>
  <path class="st0" d="M500.39,76.32l-68.47-20h-17.47l-68.47,20c-2.32,0-4.2-2.15-4.2-4.81V28.05c0-2.66,1.88-4.81,4.2-4.81l68.47,20h17.47l68.47-20c2.32,0,4.2,2.15,4.2,4.81v43.47c0,2.66-1.88,4.81-4.2,4.81Z"/>
  <path class="st0" d="M96.57,6.96L91.62.24c-.11-.15-.29-.24-.48-.24h-17.01c-.17,0-.32.08-.45.24l-4.96,6.73c-.15.22-.13.52.04.72l13.45,15.93c.11.12.27.19.44.19s.33-.07.44-.2l13.45-15.92c.17-.2.19-.5.03-.72ZM70.37,6.72l3.62-4.92,1.87,4.92h-5.49ZM70.47,7.9h5.85l4.8,12.6-10.65-12.6ZM88.49,5.9l-4.48-4.72h6.27l-1.79,4.72ZM87.65,6.72h-10.01l5-5.27,5,5.27ZM81.28,1.18l-4.48,4.72-1.79-4.72h6.27ZM88.98,7.9h5.85l-10.65,12.61,4.8-12.61ZM89.44,6.72l1.87-4.92,3.62,4.92h-5.49ZM87.73,7.9l-5.08,13.33-5.08-13.33h10.15Z"/>
</svg>